<mxfile host="Electron" modified="2023-08-06T04:25:23.973Z" agent="Mozilla/5.0 (Macintosh; Intel Mac OS X 10_15_7) AppleWebKit/537.36 (KHTML, like Gecko) draw.io/21.6.5 Chrome/114.0.5735.243 Electron/25.3.1 Safari/537.36" etag="mA0f6k_M9UEgx3qSEugY" version="21.6.5" type="device">
  <diagram name="Page-1" id="NP_mI3GZsccVuQEU3mBB">
    <mxGraphModel dx="1114" dy="999" grid="1" gridSize="10" guides="1" tooltips="1" connect="1" arrows="1" fold="1" page="1" pageScale="1" pageWidth="850" pageHeight="1100" math="0" shadow="0">
      <root>
        <mxCell id="0" />
        <mxCell id="1" parent="0" />
        <mxCell id="hEqgstcb4MqivtU8sr41-13" style="rounded=0;sketch=1;hachureGap=4;jiggle=2;curveFitting=1;orthogonalLoop=1;jettySize=auto;html=1;entryX=0;entryY=0.5;entryDx=0;entryDy=0;fontFamily=Architects Daughter;fontSource=https%3A%2F%2Ffonts.googleapis.com%2Fcss%3Ffamily%3DArchitects%2BDaughter;fontSize=16;strokeWidth=3;" edge="1" parent="1" target="hEqgstcb4MqivtU8sr41-6">
          <mxGeometry relative="1" as="geometry">
            <mxPoint x="440" y="340" as="sourcePoint" />
          </mxGeometry>
        </mxCell>
        <mxCell id="hEqgstcb4MqivtU8sr41-14" style="rounded=0;sketch=1;hachureGap=4;jiggle=2;curveFitting=1;orthogonalLoop=1;jettySize=auto;html=1;entryX=0;entryY=0.5;entryDx=0;entryDy=0;fontFamily=Architects Daughter;fontSource=https%3A%2F%2Ffonts.googleapis.com%2Fcss%3Ffamily%3DArchitects%2BDaughter;fontSize=16;exitX=1;exitY=0.5;exitDx=0;exitDy=0;strokeWidth=3;" edge="1" parent="1" source="hEqgstcb4MqivtU8sr41-3" target="hEqgstcb4MqivtU8sr41-7">
          <mxGeometry relative="1" as="geometry" />
        </mxCell>
        <mxCell id="hEqgstcb4MqivtU8sr41-3" value="&lt;b&gt;&lt;font style=&quot;font-size: 38px;&quot;&gt;Sno&lt;/font&gt;&lt;/b&gt;" style="rounded=0;whiteSpace=wrap;html=1;sketch=1;hachureGap=4;jiggle=2;curveFitting=1;fontFamily=FZJingLeiS-R-GB;fontSize=28;fillColor=#dae8fc;strokeWidth=3;strokeColor=#6c8ebf;" vertex="1" parent="1">
          <mxGeometry x="340" y="320" width="100" height="50" as="geometry" />
        </mxCell>
        <mxCell id="hEqgstcb4MqivtU8sr41-4" value="&lt;b&gt;&lt;font style=&quot;font-size: 38px;&quot;&gt;Cno&lt;/font&gt;&lt;/b&gt;" style="rounded=0;whiteSpace=wrap;html=1;sketch=1;hachureGap=4;jiggle=2;curveFitting=1;fontFamily=FZJingLeiS-R-GB;fontSize=28;fillColor=#f8cecc;strokeWidth=3;strokeColor=#b85450;" vertex="1" parent="1">
          <mxGeometry x="340" y="440" width="100" height="50" as="geometry" />
        </mxCell>
        <mxCell id="hEqgstcb4MqivtU8sr41-12" style="edgeStyle=orthogonalEdgeStyle;rounded=0;sketch=1;hachureGap=4;jiggle=2;curveFitting=1;orthogonalLoop=1;jettySize=auto;html=1;exitX=0.5;exitY=1;exitDx=0;exitDy=0;entryX=0.5;entryY=0;entryDx=0;entryDy=0;fontFamily=Architects Daughter;fontSource=https%3A%2F%2Ffonts.googleapis.com%2Fcss%3Ffamily%3DArchitects%2BDaughter;fontSize=16;strokeWidth=3;" edge="1" parent="1" source="hEqgstcb4MqivtU8sr41-6" target="hEqgstcb4MqivtU8sr41-7">
          <mxGeometry relative="1" as="geometry" />
        </mxCell>
        <mxCell id="hEqgstcb4MqivtU8sr41-6" value="&lt;b&gt;&lt;font style=&quot;font-size: 38px;&quot;&gt;Sdept&lt;/font&gt;&lt;/b&gt;" style="rounded=0;whiteSpace=wrap;html=1;sketch=1;hachureGap=4;jiggle=2;curveFitting=1;fontFamily=FZJingLeiS-R-GB;fontSize=28;fillColor=#d5e8d4;strokeWidth=3;strokeColor=#82b366;" vertex="1" parent="1">
          <mxGeometry x="660" y="265" width="100" height="50" as="geometry" />
        </mxCell>
        <mxCell id="hEqgstcb4MqivtU8sr41-7" value="&lt;b&gt;&lt;font style=&quot;font-size: 38px;&quot;&gt;Sloc&lt;/font&gt;&lt;/b&gt;" style="rounded=0;whiteSpace=wrap;html=1;sketch=1;hachureGap=4;jiggle=2;curveFitting=1;fontFamily=FZJingLeiS-R-GB;fontSize=28;fillColor=#ffe6cc;strokeWidth=3;strokeColor=#d79b00;" vertex="1" parent="1">
          <mxGeometry x="660" y="515" width="100" height="50" as="geometry" />
        </mxCell>
        <mxCell id="hEqgstcb4MqivtU8sr41-8" value="&lt;b&gt;&lt;font style=&quot;font-size: 38px;&quot;&gt;Grade&lt;/font&gt;&lt;/b&gt;" style="rounded=0;whiteSpace=wrap;html=1;sketch=1;hachureGap=4;jiggle=2;curveFitting=1;fontFamily=FZJingLeiS-R-GB;fontSize=28;fillColor=#e1d5e7;strokeWidth=3;strokeColor=#9673a6;" vertex="1" parent="1">
          <mxGeometry x="100" y="390" width="100" height="50" as="geometry" />
        </mxCell>
        <mxCell id="hEqgstcb4MqivtU8sr41-11" style="edgeStyle=orthogonalEdgeStyle;rounded=0;sketch=1;hachureGap=4;jiggle=2;curveFitting=1;orthogonalLoop=1;jettySize=auto;html=1;exitX=0;exitY=0.5;exitDx=0;exitDy=0;entryX=1;entryY=0.5;entryDx=0;entryDy=0;fontFamily=Architects Daughter;fontSource=https%3A%2F%2Ffonts.googleapis.com%2Fcss%3Ffamily%3DArchitects%2BDaughter;fontSize=16;strokeWidth=3;" edge="1" parent="1" source="hEqgstcb4MqivtU8sr41-10" target="hEqgstcb4MqivtU8sr41-8">
          <mxGeometry relative="1" as="geometry" />
        </mxCell>
        <mxCell id="hEqgstcb4MqivtU8sr41-22" style="rounded=0;sketch=1;hachureGap=4;jiggle=2;curveFitting=1;orthogonalLoop=1;jettySize=auto;html=1;entryX=0;entryY=0.5;entryDx=0;entryDy=0;fontFamily=Architects Daughter;fontSource=https%3A%2F%2Ffonts.googleapis.com%2Fcss%3Ffamily%3DArchitects%2BDaughter;fontSize=16;exitX=1.019;exitY=0.683;exitDx=0;exitDy=0;exitPerimeter=0;strokeWidth=3;dashed=1;" edge="1" parent="1" source="hEqgstcb4MqivtU8sr41-10" target="hEqgstcb4MqivtU8sr41-6">
          <mxGeometry relative="1" as="geometry" />
        </mxCell>
        <mxCell id="hEqgstcb4MqivtU8sr41-23" style="rounded=0;sketch=1;hachureGap=4;jiggle=2;curveFitting=1;orthogonalLoop=1;jettySize=auto;html=1;entryX=0;entryY=0.5;entryDx=0;entryDy=0;fontFamily=Architects Daughter;fontSource=https%3A%2F%2Ffonts.googleapis.com%2Fcss%3Ffamily%3DArchitects%2BDaughter;fontSize=16;exitX=0.996;exitY=0.7;exitDx=0;exitDy=0;exitPerimeter=0;strokeWidth=3;dashed=1;" edge="1" parent="1" source="hEqgstcb4MqivtU8sr41-10" target="hEqgstcb4MqivtU8sr41-7">
          <mxGeometry relative="1" as="geometry" />
        </mxCell>
        <mxCell id="hEqgstcb4MqivtU8sr41-10" value="" style="rounded=0;whiteSpace=wrap;html=1;sketch=1;hachureGap=4;jiggle=2;curveFitting=1;fontFamily=FZJingLeiS-R-GB;fontSize=28;fillColor=none;strokeWidth=3;" vertex="1" parent="1">
          <mxGeometry x="260" y="265" width="270" height="300" as="geometry" />
        </mxCell>
      </root>
    </mxGraphModel>
  </diagram>
</mxfile>
